<svg xmlns="http://www.w3.org/2000/svg" xmlns:xlink="http://www.w3.org/1999/xlink" width="250" zoomAndPan="magnify" viewBox="0 0 187.5 104.999996" height="140" preserveAspectRatio="xMidYMid meet" version="1.0"><defs><g/></defs><g fill="#000000" fill-opacity="1"><g transform="translate(4.803596, 94.225482)"><g><path d="M 9.1875 0 L 8.03125 0 L 6.90625 -2.671875 L 2.328125 -2.671875 L 1.203125 0 L 0.046875 0 L 3.96875 -9.234375 L 5.28125 -9.234375 Z M 6.5 -3.640625 L 4.625 -8.15625 L 2.734375 -3.640625 Z M 6.5 -3.640625 "/></g></g></g><g fill="#000000" fill-opacity="1"><g transform="translate(14.041786, 94.225482)"><g><path d="M 5.015625 -9.234375 C 5.566406 -9.234375 6.097656 -9.128906 6.609375 -8.921875 C 7.117188 -8.710938 7.570312 -8.410156 7.96875 -8.015625 C 8.832031 -7.128906 9.265625 -6 9.265625 -4.625 C 9.265625 -3.238281 8.832031 -2.109375 7.96875 -1.234375 C 7.570312 -0.828125 7.117188 -0.519531 6.609375 -0.3125 C 6.097656 -0.101562 5.566406 0 5.015625 0 L 1.125 0 L 1.125 -9.234375 Z M 4.984375 -0.984375 C 5.953125 -0.984375 6.738281 -1.34375 7.34375 -2.0625 C 7.925781 -2.75 8.21875 -3.601562 8.21875 -4.625 C 8.21875 -5.632812 7.925781 -6.484375 7.34375 -7.171875 C 6.738281 -7.890625 5.953125 -8.25 4.984375 -8.25 L 2.171875 -8.25 L 2.171875 -0.984375 Z M 4.984375 -0.984375 "/></g></g></g><g fill="#000000" fill-opacity="1"><g transform="translate(23.866089, 94.225482)"><g><path d="M 8.71875 -9.234375 L 4.984375 0 L 3.78125 0 L 0.046875 -9.234375 L 1.1875 -9.234375 L 4.375 -1.1875 L 7.578125 -9.234375 Z M 8.71875 -9.234375 "/></g></g></g><g fill="#000000" fill-opacity="1"><g transform="translate(32.629813, 94.225482)"><g><path d="M 5.234375 -9.34375 C 6.609375 -9.34375 7.738281 -8.882812 8.625 -7.96875 C 9.488281 -7.070312 9.921875 -5.953125 9.921875 -4.609375 C 9.921875 -3.273438 9.488281 -2.160156 8.625 -1.265625 C 7.738281 -0.347656 6.609375 0.109375 5.234375 0.109375 C 3.859375 0.109375 2.726562 -0.347656 1.84375 -1.265625 C 0.976562 -2.160156 0.546875 -3.273438 0.546875 -4.609375 C 0.546875 -5.953125 0.976562 -7.070312 1.84375 -7.96875 C 2.726562 -8.882812 3.859375 -9.34375 5.234375 -9.34375 Z M 5.234375 -0.90625 C 6.328125 -0.90625 7.210938 -1.265625 7.890625 -1.984375 C 8.546875 -2.671875 8.875 -3.550781 8.875 -4.625 C 8.875 -5.6875 8.546875 -6.5625 7.890625 -7.25 C 7.210938 -7.96875 6.328125 -8.328125 5.234375 -8.328125 C 4.140625 -8.328125 3.25 -7.96875 2.5625 -7.25 C 1.914062 -6.5625 1.59375 -5.6875 1.59375 -4.625 C 1.59375 -3.550781 1.914062 -2.671875 2.5625 -1.984375 C 3.25 -1.265625 4.140625 -0.90625 5.234375 -0.90625 Z M 5.234375 -0.90625 "/></g></g></g><g fill="#000000" fill-opacity="1"><g transform="translate(43.096043, 94.225482)"><g><path d="M 1.78125 -7.96875 C 2.175781 -8.394531 2.648438 -8.726562 3.203125 -8.96875 C 3.765625 -9.21875 4.34375 -9.34375 4.9375 -9.34375 C 5.53125 -9.34375 6.046875 -9.273438 6.484375 -9.140625 C 6.921875 -9.015625 7.316406 -8.84375 7.671875 -8.625 C 8.410156 -8.144531 8.953125 -7.507812 9.296875 -6.71875 L 8.15625 -6.71875 C 7.875 -7.226562 7.484375 -7.625 6.984375 -7.90625 C 6.484375 -8.1875 5.914062 -8.328125 5.28125 -8.328125 C 4.65625 -8.328125 4.117188 -8.234375 3.671875 -8.046875 C 3.222656 -7.859375 2.847656 -7.59375 2.546875 -7.25 C 1.910156 -6.5625 1.59375 -5.6875 1.59375 -4.625 C 1.59375 -3.539062 1.90625 -2.660156 2.53125 -1.984375 C 3.1875 -1.265625 4.0625 -0.90625 5.15625 -0.90625 C 6.019531 -0.90625 6.769531 -1.175781 7.40625 -1.71875 C 8.070312 -2.28125 8.40625 -3.03125 8.40625 -3.96875 L 5.03125 -3.96875 L 5.03125 -4.90625 L 9.375 -4.90625 L 9.375 0 L 8.40625 0 L 8.40625 -1.625 C 7.882812 -0.832031 7.148438 -0.300781 6.203125 -0.03125 C 5.859375 0.0625 5.40625 0.109375 4.84375 0.109375 C 4.28125 0.109375 3.71875 -0.0078125 3.15625 -0.25 C 2.601562 -0.5 2.132812 -0.835938 1.75 -1.265625 C 0.945312 -2.140625 0.546875 -3.257812 0.546875 -4.625 C 0.546875 -5.957031 0.957031 -7.070312 1.78125 -7.96875 Z M 1.78125 -7.96875 "/></g></g></g><g fill="#000000" fill-opacity="1"><g transform="translate(53.185486, 94.225482)"><g><path d="M 9.1875 0 L 8.03125 0 L 6.90625 -2.671875 L 2.328125 -2.671875 L 1.203125 0 L 0.046875 0 L 3.96875 -9.234375 L 5.28125 -9.234375 Z M 6.5 -3.640625 L 4.625 -8.15625 L 2.734375 -3.640625 Z M 6.5 -3.640625 "/></g></g></g><g fill="#000000" fill-opacity="1"><g transform="translate(62.423676, 94.225482)"><g><path d="M 5.015625 -9.234375 C 5.566406 -9.234375 6.097656 -9.128906 6.609375 -8.921875 C 7.117188 -8.710938 7.570312 -8.410156 7.96875 -8.015625 C 8.832031 -7.128906 9.265625 -6 9.265625 -4.625 C 9.265625 -3.238281 8.832031 -2.109375 7.96875 -1.234375 C 7.570312 -0.828125 7.117188 -0.519531 6.609375 -0.3125 C 6.097656 -0.101562 5.566406 0 5.015625 0 L 1.125 0 L 1.125 -9.234375 Z M 4.984375 -0.984375 C 5.953125 -0.984375 6.738281 -1.34375 7.34375 -2.0625 C 7.925781 -2.75 8.21875 -3.601562 8.21875 -4.625 C 8.21875 -5.632812 7.925781 -6.484375 7.34375 -7.171875 C 6.738281 -7.890625 5.953125 -8.25 4.984375 -8.25 L 2.171875 -8.25 L 2.171875 -0.984375 Z M 4.984375 -0.984375 "/></g></g></g><g fill="#000000" fill-opacity="1"><g transform="translate(72.247979, 94.225482)"><g><path d="M 5.234375 -9.34375 C 6.609375 -9.34375 7.738281 -8.882812 8.625 -7.96875 C 9.488281 -7.070312 9.921875 -5.953125 9.921875 -4.609375 C 9.921875 -3.273438 9.488281 -2.160156 8.625 -1.265625 C 7.738281 -0.347656 6.609375 0.109375 5.234375 0.109375 C 3.859375 0.109375 2.726562 -0.347656 1.84375 -1.265625 C 0.976562 -2.160156 0.546875 -3.273438 0.546875 -4.609375 C 0.546875 -5.953125 0.976562 -7.070312 1.84375 -7.96875 C 2.726562 -8.882812 3.859375 -9.34375 5.234375 -9.34375 Z M 5.234375 -0.90625 C 6.328125 -0.90625 7.210938 -1.265625 7.890625 -1.984375 C 8.546875 -2.671875 8.875 -3.550781 8.875 -4.625 C 8.875 -5.6875 8.546875 -6.5625 7.890625 -7.25 C 7.210938 -7.96875 6.328125 -8.328125 5.234375 -8.328125 C 4.140625 -8.328125 3.25 -7.96875 2.5625 -7.25 C 1.914062 -6.5625 1.59375 -5.6875 1.59375 -4.625 C 1.59375 -3.550781 1.914062 -2.671875 2.5625 -1.984375 C 3.25 -1.265625 4.140625 -0.90625 5.234375 -0.90625 Z M 5.234375 -0.90625 "/></g></g></g><g fill="#000000" fill-opacity="1"><g transform="translate(82.714209, 94.225482)"><g><path d="M 2.1875 -7.8125 C 2.007812 -7.664062 1.890625 -7.5 1.828125 -7.3125 C 1.773438 -7.125 1.75 -6.925781 1.75 -6.71875 C 1.75 -6.507812 1.835938 -6.316406 2.015625 -6.140625 C 2.191406 -5.960938 2.429688 -5.8125 2.734375 -5.6875 C 3.035156 -5.570312 3.375 -5.46875 3.75 -5.375 C 4.132812 -5.28125 4.523438 -5.179688 4.921875 -5.078125 C 5.316406 -4.984375 5.703125 -4.875 6.078125 -4.75 C 6.460938 -4.625 6.804688 -4.460938 7.109375 -4.265625 C 7.765625 -3.847656 8.09375 -3.273438 8.09375 -2.546875 C 8.09375 -1.679688 7.769531 -1.019531 7.125 -0.5625 C 6.476562 -0.113281 5.582031 0.109375 4.4375 0.109375 C 3.144531 0.109375 2.160156 -0.160156 1.484375 -0.703125 C 0.878906 -1.179688 0.535156 -1.867188 0.453125 -2.765625 L 1.53125 -2.765625 C 1.570312 -2.128906 1.878906 -1.644531 2.453125 -1.3125 C 2.953125 -1.019531 3.617188 -0.875 4.453125 -0.875 C 6.179688 -0.875 7.046875 -1.421875 7.046875 -2.515625 C 7.046875 -2.878906 6.890625 -3.171875 6.578125 -3.390625 C 6.265625 -3.609375 5.875 -3.785156 5.40625 -3.921875 C 4.9375 -4.054688 4.425781 -4.1875 3.875 -4.3125 C 3.332031 -4.4375 2.828125 -4.59375 2.359375 -4.78125 C 1.890625 -4.96875 1.5 -5.21875 1.1875 -5.53125 C 0.875 -5.84375 0.71875 -6.265625 0.71875 -6.796875 C 0.71875 -7.546875 1.003906 -8.15625 1.578125 -8.625 C 2.160156 -9.101562 3.035156 -9.34375 4.203125 -9.34375 C 5.367188 -9.34375 6.273438 -9.078125 6.921875 -8.546875 C 7.503906 -8.066406 7.816406 -7.457031 7.859375 -6.71875 L 6.78125 -6.71875 C 6.6875 -7.476562 6.191406 -7.984375 5.296875 -8.234375 C 4.984375 -8.328125 4.59375 -8.375 4.125 -8.375 C 3.65625 -8.375 3.257812 -8.316406 2.9375 -8.203125 C 2.613281 -8.097656 2.363281 -7.96875 2.1875 -7.8125 Z M 2.1875 -7.8125 "/></g></g></g><g fill="#000000" fill-opacity="1"><g transform="translate(91.296524, 94.225482)"><g/></g></g><g fill="#000000" fill-opacity="1"><g transform="translate(94.268937, 94.225482)"><g><path d="M 9.1875 0 L 8.03125 0 L 6.90625 -2.671875 L 2.328125 -2.671875 L 1.203125 0 L 0.046875 0 L 3.96875 -9.234375 L 5.28125 -9.234375 Z M 6.5 -3.640625 L 4.625 -8.15625 L 2.734375 -3.640625 Z M 6.5 -3.640625 "/></g></g></g><g fill="#000000" fill-opacity="1"><g transform="translate(103.507126, 94.225482)"><g><path d="M 2.1875 -7.8125 C 2.007812 -7.664062 1.890625 -7.5 1.828125 -7.3125 C 1.773438 -7.125 1.75 -6.925781 1.75 -6.71875 C 1.75 -6.507812 1.835938 -6.316406 2.015625 -6.140625 C 2.191406 -5.960938 2.429688 -5.8125 2.734375 -5.6875 C 3.035156 -5.570312 3.375 -5.46875 3.75 -5.375 C 4.132812 -5.28125 4.523438 -5.179688 4.921875 -5.078125 C 5.316406 -4.984375 5.703125 -4.875 6.078125 -4.75 C 6.460938 -4.625 6.804688 -4.460938 7.109375 -4.265625 C 7.765625 -3.847656 8.09375 -3.273438 8.09375 -2.546875 C 8.09375 -1.679688 7.769531 -1.019531 7.125 -0.5625 C 6.476562 -0.113281 5.582031 0.109375 4.4375 0.109375 C 3.144531 0.109375 2.160156 -0.160156 1.484375 -0.703125 C 0.878906 -1.179688 0.535156 -1.867188 0.453125 -2.765625 L 1.53125 -2.765625 C 1.570312 -2.128906 1.878906 -1.644531 2.453125 -1.3125 C 2.953125 -1.019531 3.617188 -0.875 4.453125 -0.875 C 6.179688 -0.875 7.046875 -1.421875 7.046875 -2.515625 C 7.046875 -2.878906 6.890625 -3.171875 6.578125 -3.390625 C 6.265625 -3.609375 5.875 -3.785156 5.40625 -3.921875 C 4.9375 -4.054688 4.425781 -4.1875 3.875 -4.3125 C 3.332031 -4.4375 2.828125 -4.59375 2.359375 -4.78125 C 1.890625 -4.96875 1.5 -5.21875 1.1875 -5.53125 C 0.875 -5.84375 0.71875 -6.265625 0.71875 -6.796875 C 0.71875 -7.546875 1.003906 -8.15625 1.578125 -8.625 C 2.160156 -9.101562 3.035156 -9.34375 4.203125 -9.34375 C 5.367188 -9.34375 6.273438 -9.078125 6.921875 -8.546875 C 7.503906 -8.066406 7.816406 -7.457031 7.859375 -6.71875 L 6.78125 -6.71875 C 6.6875 -7.476562 6.191406 -7.984375 5.296875 -8.234375 C 4.984375 -8.328125 4.59375 -8.375 4.125 -8.375 C 3.65625 -8.375 3.257812 -8.316406 2.9375 -8.203125 C 2.613281 -8.097656 2.363281 -7.96875 2.1875 -7.8125 Z M 2.1875 -7.8125 "/></g></g></g><g fill="#000000" fill-opacity="1"><g transform="translate(112.089442, 94.225482)"><g><path d="M 2.1875 -7.8125 C 2.007812 -7.664062 1.890625 -7.5 1.828125 -7.3125 C 1.773438 -7.125 1.75 -6.925781 1.75 -6.71875 C 1.75 -6.507812 1.835938 -6.316406 2.015625 -6.140625 C 2.191406 -5.960938 2.429688 -5.8125 2.734375 -5.6875 C 3.035156 -5.570312 3.375 -5.46875 3.75 -5.375 C 4.132812 -5.28125 4.523438 -5.179688 4.921875 -5.078125 C 5.316406 -4.984375 5.703125 -4.875 6.078125 -4.75 C 6.460938 -4.625 6.804688 -4.460938 7.109375 -4.265625 C 7.765625 -3.847656 8.09375 -3.273438 8.09375 -2.546875 C 8.09375 -1.679688 7.769531 -1.019531 7.125 -0.5625 C 6.476562 -0.113281 5.582031 0.109375 4.4375 0.109375 C 3.144531 0.109375 2.160156 -0.160156 1.484375 -0.703125 C 0.878906 -1.179688 0.535156 -1.867188 0.453125 -2.765625 L 1.53125 -2.765625 C 1.570312 -2.128906 1.878906 -1.644531 2.453125 -1.3125 C 2.953125 -1.019531 3.617188 -0.875 4.453125 -0.875 C 6.179688 -0.875 7.046875 -1.421875 7.046875 -2.515625 C 7.046875 -2.878906 6.890625 -3.171875 6.578125 -3.390625 C 6.265625 -3.609375 5.875 -3.785156 5.40625 -3.921875 C 4.9375 -4.054688 4.425781 -4.1875 3.875 -4.3125 C 3.332031 -4.4375 2.828125 -4.59375 2.359375 -4.78125 C 1.890625 -4.96875 1.5 -5.21875 1.1875 -5.53125 C 0.875 -5.84375 0.71875 -6.265625 0.71875 -6.796875 C 0.71875 -7.546875 1.003906 -8.15625 1.578125 -8.625 C 2.160156 -9.101562 3.035156 -9.34375 4.203125 -9.34375 C 5.367188 -9.34375 6.273438 -9.078125 6.921875 -8.546875 C 7.503906 -8.066406 7.816406 -7.457031 7.859375 -6.71875 L 6.78125 -6.71875 C 6.6875 -7.476562 6.191406 -7.984375 5.296875 -8.234375 C 4.984375 -8.328125 4.59375 -8.375 4.125 -8.375 C 3.65625 -8.375 3.257812 -8.316406 2.9375 -8.203125 C 2.613281 -8.097656 2.363281 -7.96875 2.1875 -7.8125 Z M 2.1875 -7.8125 "/></g></g></g><g fill="#000000" fill-opacity="1"><g transform="translate(120.671757, 94.225482)"><g><path d="M 5.234375 -9.34375 C 6.609375 -9.34375 7.738281 -8.882812 8.625 -7.96875 C 9.488281 -7.070312 9.921875 -5.953125 9.921875 -4.609375 C 9.921875 -3.273438 9.488281 -2.160156 8.625 -1.265625 C 7.738281 -0.347656 6.609375 0.109375 5.234375 0.109375 C 3.859375 0.109375 2.726562 -0.347656 1.84375 -1.265625 C 0.976562 -2.160156 0.546875 -3.273438 0.546875 -4.609375 C 0.546875 -5.953125 0.976562 -7.070312 1.84375 -7.96875 C 2.726562 -8.882812 3.859375 -9.34375 5.234375 -9.34375 Z M 5.234375 -0.90625 C 6.328125 -0.90625 7.210938 -1.265625 7.890625 -1.984375 C 8.546875 -2.671875 8.875 -3.550781 8.875 -4.625 C 8.875 -5.6875 8.546875 -6.5625 7.890625 -7.25 C 7.210938 -7.96875 6.328125 -8.328125 5.234375 -8.328125 C 4.140625 -8.328125 3.25 -7.96875 2.5625 -7.25 C 1.914062 -6.5625 1.59375 -5.6875 1.59375 -4.625 C 1.59375 -3.550781 1.914062 -2.671875 2.5625 -1.984375 C 3.25 -1.265625 4.140625 -0.90625 5.234375 -0.90625 Z M 5.234375 -0.90625 "/></g></g></g><g fill="#000000" fill-opacity="1"><g transform="translate(131.137987, 94.225482)"><g><path d="M 5.25 -0.90625 C 5.90625 -0.90625 6.484375 -1.070312 6.984375 -1.40625 C 7.484375 -1.738281 7.851562 -2.191406 8.09375 -2.765625 L 9.1875 -2.765625 C 8.882812 -1.890625 8.378906 -1.203125 7.671875 -0.703125 C 6.921875 -0.160156 6.035156 0.109375 5.015625 0.109375 C 3.660156 0.109375 2.566406 -0.347656 1.734375 -1.265625 C 0.941406 -2.148438 0.546875 -3.265625 0.546875 -4.609375 C 0.546875 -5.960938 0.941406 -7.082031 1.734375 -7.96875 C 2.566406 -8.882812 3.660156 -9.34375 5.015625 -9.34375 C 6.035156 -9.34375 6.921875 -9.078125 7.671875 -8.546875 C 8.378906 -8.035156 8.882812 -7.34375 9.1875 -6.46875 L 8.09375 -6.46875 C 7.851562 -7.039062 7.484375 -7.492188 6.984375 -7.828125 C 6.484375 -8.160156 5.898438 -8.328125 5.234375 -8.328125 C 4.578125 -8.328125 4.03125 -8.234375 3.59375 -8.046875 C 3.15625 -7.859375 2.789062 -7.59375 2.5 -7.25 C 1.894531 -6.570312 1.59375 -5.695312 1.59375 -4.625 C 1.59375 -3.539062 1.894531 -2.660156 2.5 -1.984375 C 3.132812 -1.265625 4.050781 -0.90625 5.25 -0.90625 Z M 5.25 -0.90625 "/></g></g></g><g fill="#000000" fill-opacity="1"><g transform="translate(140.766923, 94.225482)"><g><path d="M 2.171875 0 L 1.125 0 L 1.125 -9.234375 L 2.171875 -9.234375 Z M 2.171875 0 "/></g></g></g><g fill="#000000" fill-opacity="1"><g transform="translate(144.074258, 94.225482)"><g><path d="M 9.1875 0 L 8.03125 0 L 6.90625 -2.671875 L 2.328125 -2.671875 L 1.203125 0 L 0.046875 0 L 3.96875 -9.234375 L 5.28125 -9.234375 Z M 6.5 -3.640625 L 4.625 -8.15625 L 2.734375 -3.640625 Z M 6.5 -3.640625 "/></g></g></g><g fill="#000000" fill-opacity="1"><g transform="translate(153.312447, 94.225482)"><g><path d="M 5.015625 -9.234375 C 5.566406 -9.234375 6.097656 -9.128906 6.609375 -8.921875 C 7.117188 -8.710938 7.570312 -8.410156 7.96875 -8.015625 C 8.832031 -7.128906 9.265625 -6 9.265625 -4.625 C 9.265625 -3.238281 8.832031 -2.109375 7.96875 -1.234375 C 7.570312 -0.828125 7.117188 -0.519531 6.609375 -0.3125 C 6.097656 -0.101562 5.566406 0 5.015625 0 L 1.125 0 L 1.125 -9.234375 Z M 4.984375 -0.984375 C 5.953125 -0.984375 6.738281 -1.34375 7.34375 -2.0625 C 7.925781 -2.75 8.21875 -3.601562 8.21875 -4.625 C 8.21875 -5.632812 7.925781 -6.484375 7.34375 -7.171875 C 6.738281 -7.890625 5.953125 -8.25 4.984375 -8.25 L 2.171875 -8.25 L 2.171875 -0.984375 Z M 4.984375 -0.984375 "/></g></g></g><g fill="#000000" fill-opacity="1"><g transform="translate(163.136751, 94.225482)"><g><path d="M 5.234375 -9.34375 C 6.609375 -9.34375 7.738281 -8.882812 8.625 -7.96875 C 9.488281 -7.070312 9.921875 -5.953125 9.921875 -4.609375 C 9.921875 -3.273438 9.488281 -2.160156 8.625 -1.265625 C 7.738281 -0.347656 6.609375 0.109375 5.234375 0.109375 C 3.859375 0.109375 2.726562 -0.347656 1.84375 -1.265625 C 0.976562 -2.160156 0.546875 -3.273438 0.546875 -4.609375 C 0.546875 -5.953125 0.976562 -7.070312 1.84375 -7.96875 C 2.726562 -8.882812 3.859375 -9.34375 5.234375 -9.34375 Z M 5.234375 -0.90625 C 6.328125 -0.90625 7.210938 -1.265625 7.890625 -1.984375 C 8.546875 -2.671875 8.875 -3.550781 8.875 -4.625 C 8.875 -5.6875 8.546875 -6.5625 7.890625 -7.25 C 7.210938 -7.96875 6.328125 -8.328125 5.234375 -8.328125 C 4.140625 -8.328125 3.25 -7.96875 2.5625 -7.25 C 1.914062 -6.5625 1.59375 -5.6875 1.59375 -4.625 C 1.59375 -3.550781 1.914062 -2.671875 2.5625 -1.984375 C 3.25 -1.265625 4.140625 -0.90625 5.234375 -0.90625 Z M 5.234375 -0.90625 "/></g></g></g><g fill="#000000" fill-opacity="1"><g transform="translate(173.602981, 94.225482)"><g><path d="M 2.1875 -7.8125 C 2.007812 -7.664062 1.890625 -7.5 1.828125 -7.3125 C 1.773438 -7.125 1.75 -6.925781 1.75 -6.71875 C 1.75 -6.507812 1.835938 -6.316406 2.015625 -6.140625 C 2.191406 -5.960938 2.429688 -5.8125 2.734375 -5.6875 C 3.035156 -5.570312 3.375 -5.46875 3.75 -5.375 C 4.132812 -5.28125 4.523438 -5.179688 4.921875 -5.078125 C 5.316406 -4.984375 5.703125 -4.875 6.078125 -4.75 C 6.460938 -4.625 6.804688 -4.460938 7.109375 -4.265625 C 7.765625 -3.847656 8.09375 -3.273438 8.09375 -2.546875 C 8.09375 -1.679688 7.769531 -1.019531 7.125 -0.5625 C 6.476562 -0.113281 5.582031 0.109375 4.4375 0.109375 C 3.144531 0.109375 2.160156 -0.160156 1.484375 -0.703125 C 0.878906 -1.179688 0.535156 -1.867188 0.453125 -2.765625 L 1.53125 -2.765625 C 1.570312 -2.128906 1.878906 -1.644531 2.453125 -1.3125 C 2.953125 -1.019531 3.617188 -0.875 4.453125 -0.875 C 6.179688 -0.875 7.046875 -1.421875 7.046875 -2.515625 C 7.046875 -2.878906 6.890625 -3.171875 6.578125 -3.390625 C 6.265625 -3.609375 5.875 -3.785156 5.40625 -3.921875 C 4.9375 -4.054688 4.425781 -4.1875 3.875 -4.3125 C 3.332031 -4.4375 2.828125 -4.59375 2.359375 -4.78125 C 1.890625 -4.96875 1.5 -5.21875 1.1875 -5.53125 C 0.875 -5.84375 0.71875 -6.265625 0.71875 -6.796875 C 0.71875 -7.546875 1.003906 -8.15625 1.578125 -8.625 C 2.160156 -9.101562 3.035156 -9.34375 4.203125 -9.34375 C 5.367188 -9.34375 6.273438 -9.078125 6.921875 -8.546875 C 7.503906 -8.066406 7.816406 -7.457031 7.859375 -6.71875 L 6.78125 -6.71875 C 6.6875 -7.476562 6.191406 -7.984375 5.296875 -8.234375 C 4.984375 -8.328125 4.59375 -8.375 4.125 -8.375 C 3.65625 -8.375 3.257812 -8.316406 2.9375 -8.203125 C 2.613281 -8.097656 2.363281 -7.96875 2.1875 -7.8125 Z M 2.1875 -7.8125 "/></g></g></g><path fill="#000000" d="M 4.773438 45.195312 L 4.789062 77.804688 L 26.546875 77.820312 L 48.304688 77.828125 L 48.304688 63.226562 L 19.292969 63.226562 L 19.292969 12.589844 L 4.761719 12.589844 Z M 4.773438 45.195312 " fill-opacity="1" fill-rule="nonzero"/><path fill="#000000" d="M 55.554688 45.195312 L 55.570312 77.804688 L 62.820312 77.820312 L 70.074219 77.828125 L 70.085938 56.472656 L 70.101562 35.113281 L 81.191406 50.972656 L 92.285156 66.824219 L 98.222656 66.816406 L 104.160156 66.800781 L 131.542969 27.792969 L 132.332031 27.757812 C 132.769531 27.734375 138.855469 27.667969 145.871094 27.605469 C 159.800781 27.480469 159.253906 27.472656 160.464844 27.777344 C 162.101562 28.1875 163.382812 28.933594 164.683594 30.242188 C 165.507812 31.066406 165.964844 31.675781 166.425781 32.5625 C 167.070312 33.820312 167.355469 34.957031 167.402344 36.476562 C 167.445312 37.808594 167.335938 38.679688 166.992188 39.761719 C 166.097656 42.578125 163.488281 45.09375 160.699219 45.832031 C 159.429688 46.167969 160.464844 46.144531 147.886719 46.160156 L 136.457031 46.179688 L 135.082031 48.144531 C 134.320312 49.226562 132.042969 52.480469 130.011719 55.367188 L 126.324219 60.625 L 126.335938 69.214844 L 126.351562 77.804688 L 133.605469 77.820312 L 140.855469 77.828125 L 140.855469 60.722656 L 151.308594 60.722656 L 157.636719 69.261719 L 163.960938 77.804688 L 172.980469 77.820312 C 177.945312 77.824219 182.003906 77.820312 182.003906 77.804688 C 182.003906 77.789062 178.816406 73.480469 174.917969 68.234375 C 171.023438 62.980469 167.835938 58.675781 167.835938 58.652344 C 167.835938 58.628906 168.214844 58.417969 168.683594 58.183594 C 172.589844 56.214844 175.773438 53.382812 178.105469 49.800781 C 180.199219 46.585938 181.449219 43.070312 181.910156 39.109375 C 182.011719 38.21875 181.996094 35.277344 181.882812 34.363281 C 181.523438 31.464844 180.746094 28.800781 179.601562 26.5 C 177.726562 22.753906 175.175781 19.746094 171.886719 17.410156 C 168.988281 15.34375 165.128906 13.691406 161.800781 13.085938 C 159.949219 12.746094 161.695312 12.777344 142.082031 12.761719 L 124.269531 12.753906 L 111.257812 31.363281 C 104.101562 41.605469 98.226562 49.980469 98.210938 49.980469 C 98.191406 49.980469 92.292969 41.566406 85.101562 31.285156 L 72.03125 12.589844 L 55.542969 12.589844 Z M 55.554688 45.195312 " fill-opacity="1" fill-rule="nonzero"/><path fill="#000000" d="M 84.207031 13.269531 C 84.339844 15.84375 85.128906 18.265625 86.535156 20.371094 C 87.148438 21.300781 87.582031 21.832031 88.332031 22.578125 C 90.472656 24.726562 93.058594 26.050781 96.117188 26.570312 C 97.039062 26.730469 98.894531 26.765625 99.882812 26.652344 C 105.714844 25.972656 110.503906 21.847656 111.972656 16.238281 C 112.253906 15.164062 112.472656 13.65625 112.472656 12.761719 L 112.472656 12.589844 L 84.175781 12.589844 Z M 84.207031 13.269531 " fill-opacity="1" fill-rule="nonzero"/></svg>