<?xml version="1.0" standalone="no"?>
<!DOCTYPE svg PUBLIC "-//W3C//DTD SVG 1.1//EN" "http://www.w3.org/Graphics/SVG/1.1/DTD/svg11.dtd">
<svg xmlns="http://www.w3.org/2000/svg" viewBox="0 0 250 140.639" width="250" height="140.63900756835938">
  <g transform="matrix(0.003703, 0, 0, -0.003703, -23.138461, 153.644016)" fill="#000000" stroke="none">
    <path d="M 6792.583 22507.75 L 6798.44 10300.781 L 14954.639 10294.923 L 23108.887 10291.02 L 23108.887 13024.069 L 23108.887 15757.118 L 17672.071 15757.118 L 12235.255 15757.118 L 12235.255 25234.942 L 12235.255 34712.767 L 9511.967 34712.767 L 6788.679 34712.767 L 6792.583 22507.75 Z"/>
    <path d="M 25826.32 22507.75 L 25832.175 10300.781 L 28549.607 10294.923 L 31268.991 10291.02 L 31272.895 18285.189 L 31278.752 26281.31 L 35434.938 20344.736 L 39593.079 14410.116 L 41818.56 14414.02 L 44044.044 14419.875 L 49176.32 21721.021 L 54308.596 29022.168 L 54603.375 29035.832 C 54767.358 29043.642 57049.454 29069.019 59679.037 29092.446 C 64899.162 29139.298 64694.183 29141.25 65149.041 29028.024 C 65762.025 28873.802 66242.261 28594.64 66730.305 28104.643 C 67038.75 27796.199 67210.54 27567.794 67382.332 27235.925 C 67624.401 26765.45 67731.771 26339.875 67749.342 25771.791 C 67764.959 25272.034 67723.964 24946.019 67595.119 24541.919 C 67259.345 23487.743 66281.304 22544.841 65236.889 22269.583 C 64760.556 22142.691 65149.041 22152.453 60434.531 22146.596 L 56149.5 22138.789 L 55634.124 21402.817 C 55349.107 20998.716 54496.005 19780.557 53734.656 18699.05 L 52352.514 16731.255 L 52356.418 13516.017 L 52362.275 10300.781 L 55081.659 10294.923 L 57799.09 10291.02 L 57799.09 13492.592 L 57799.09 16694.164 L 59757.125 16694.164 L 61717.112 16694.164 L 64089.008 13498.447 L 66458.952 10300.781 L 69840.125 10294.923 C 71700.551 10292.971 73221.296 10294.923 73221.296 10300.781 C 73221.296 10306.637 72026.563 11919.136 70566.335 13883.027 C 69106.106 15848.87 67911.373 17461.369 67911.373 17469.178 C 67911.373 17478.939 68053.881 17557.025 68229.578 17644.874 C 69693.711 18382.797 70886.492 19442.83 71761.068 20783.976 C 72545.843 21986.519 73014.366 23302.287 73186.157 24785.942 C 73225.201 25119.764 73219.345 26220.791 73176.396 26562.423 C 73041.697 27647.834 72750.822 28645.397 72321.342 29506.308 C 71618.558 30907.972 70661.99 32034.379 69430.167 32908.954 C 68342.803 33682.016 66896.239 34300.857 65648.798 34527.31 C 64955.775 34654.201 65609.755 34642.488 58257.853 34648.344 L 51581.403 34652.249 L 46704.863 27684.926 C 44022.57 23850.848 41820.513 20715.649 41814.657 20715.649 C 41806.848 20715.649 39596.982 23866.465 36901.024 27714.208 L 32003.01 34712.767 L 28912.712 34712.767 L 25822.415 34712.767 L 25826.32 22507.75 Z"/>
    <path d="M 36565.249 34458.984 C 36616.006 33494.607 36910.786 32588.796 37437.874 31800.117 C 37668.23 31452.63 37830.261 31253.507 38111.375 30974.345 C 38913.719 30170.048 39883.953 29674.195 41029.881 29478.977 C 41375.417 29420.412 42070.391 29406.747 42441.306 29449.694 C 44627.744 29703.477 46421.796 31247.65 46972.311 33348.194 C 47077.729 33750.343 47159.72 34314.522 47159.72 34648.344 L 47159.72 34712.767 L 41855.653 34712.767 L 36553.537 34712.767 L 36565.249 34458.984 Z"/>
  </g>
</svg>